<svg id="Capa_1" data-name="Capa 1" xmlns="http://www.w3.org/2000/svg" viewBox="0 0 13.05 16"><title>favicon-2</title><path id="Path" d="M13,13.1a1.37,1.37,0,0,1-1.15,1.58L3.71,16a1.37,1.37,0,0,1-1.58-1.15L.25,3A1.33,1.33,0,0,1,.49,2a1.33,1.33,0,0,1,.9-.55L9.56.14a1.33,1.33,0,0,1,1,.24,1.33,1.33,0,0,1,.55.9Z" style="fill:#a2deaf"/><path id="Path-Copy" d="M12.8,13a1.37,1.37,0,0,1-1.15,1.58l-8.17,1.3A1.37,1.37,0,0,1,1.9,14.71L0,2.9a1.33,1.33,0,0,1,.24-1,1.33,1.33,0,0,1,.9-.55L9.34,0a1.33,1.33,0,0,1,1,.24,1.33,1.33,0,0,1,.55.9Z" style="fill:#114e4e"/><path id="Path-2" data-name="Path" d="M3.34,14.95l8.17-1.3a.44.44,0,0,0,.38-.53L10,1.31A.44.44,0,0,0,9.48.93L1.31,2.23a.44.44,0,0,0-.38.53L2.81,14.57a.44.44,0,0,0,.53.38Z" style="fill:#fff"/><path d="M9.66,7.35a.37.37,0,0,0-.26.19,1.5,1.5,0,0,0-1.94.24S6.56,6.89,6.92,6a.37.37,0,1,0-.2-.27.36.36,0,0,0,0,.11,2.29,2.29,0,0,0-1.26,2A1.61,1.61,0,0,0,3.36,7.8.37.37,0,1,0,3.45,8v0c.44,0,1.2.24,1.72,2.25l0,.16c0,.17.74.2,1.6.06S8.33,10,8.3,9.86A2.14,2.14,0,0,1,9.36,7.79a.37.37,0,1,0,.3-.44Z" style="fill:#e17334"/><path d="M2.35,4.13a.78.78,0,1,1,.12,0Zm0-1.42h-.1a.64.64,0,1,0,.1,0Z" style="fill:#a2deaf"/><path d="M2.28,3.49s0,.1,0,.1-.07,0-.08-.08,0-.1,0-.1S2.27,3.45,2.28,3.49Zm.48-.17a.37.37,0,0,1,0,.16c0,.14-.22.16-.34.18s-.31.06-.4-.06A.36.36,0,0,1,2,3.45a.29.29,0,0,1,0-.2.27.27,0,0,1,0-.08.17.17,0,0,1,0-.09.27.27,0,0,1,.19,0l.15,0h.14A.26.26,0,0,1,2.62,3a.17.17,0,0,1,0,.08.26.26,0,0,1,0,.08.29.29,0,0,1,.1.18Zm-.09.1a.13.13,0,0,0-.15-.12l-.09,0-.07,0H2.18a.13.13,0,0,0-.1.16c0,.15.16.15.28.13h.08C2.56,3.62,2.69,3.57,2.66,3.42Zm-.15-.07s-.05.07,0,.1,0,.09.08.08.05-.07,0-.1S2.55,3.35,2.51,3.35Z" style="fill:#114e4e"/><path d="M8.91,3.07a.78.78,0,1,1,.77-.9h0A.78.78,0,0,1,9,3.06Zm0-1.42h-.1a.64.64,0,1,0,.74.53h0A.64.64,0,0,0,8.91,1.64Z" style="fill:#a2deaf"/><path d="M9.2,2.07v0a.48.48,0,0,1-.66.51h0a.33.33,0,0,0,.19-.1.17.17,0,0,1-.17-.09h.07a.17.17,0,0,1-.16-.14H8.6A.17.17,0,0,1,8.51,2a.48.48,0,0,0,.37.12v0A.17.17,0,0,1,9.14,2l.1-.06a.17.17,0,0,1-.06.1l.09,0a.36.36,0,0,1-.07.1Z" style="fill:#114e4e"/><path d="M4.3,13.38v0a.48.48,0,0,1-.66.51h0a.33.33,0,0,0,.19-.1.17.17,0,0,1-.17-.09h.07a.17.17,0,0,1-.16-.14H3.7a.17.17,0,0,1-.09-.21.48.48,0,0,0,.37.12v0a.17.17,0,0,1,.27-.16l.1-.06a.17.17,0,0,1-.06.1l.09,0a.36.36,0,0,1-.07.1Z" style="fill:#114e4e"/><path d="M4,14.37a.78.78,0,1,1,.77-.9h0a.78.78,0,0,1-.64.89ZM4,13h-.1a.64.64,0,1,0,.74.53h0A.64.64,0,0,0,4,13Z" style="fill:#a2deaf"/><path d="M10.56,13.31a.78.78,0,1,1,.77-.9h0a.78.78,0,0,1-.64.89Zm0-1.42h-.1a.64.64,0,1,0,.74.53h0A.64.64,0,0,0,10.57,11.89Z" style="fill:#a2deaf"/><path d="M10.5,12.67s0,.1,0,.1-.07,0-.08-.08,0-.1,0-.1S10.49,12.64,10.5,12.67Zm.48-.17a.37.37,0,0,1,0,.16c0,.14-.22.16-.34.18s-.31.06-.4-.06a.36.36,0,0,1-.06-.15.29.29,0,0,1,0-.2.27.27,0,0,1,0-.08.17.17,0,0,1,0-.09.27.27,0,0,1,.19,0l.15,0h.14a.26.26,0,0,1,.17-.09.17.17,0,0,1,0,.08.26.26,0,0,1,0,.08.29.29,0,0,1,.1.18Zm-.09.1a.13.13,0,0,0-.15-.12l-.09,0-.07,0H10.4a.13.13,0,0,0-.1.16c0,.15.16.15.28.13h.08C10.77,12.8,10.9,12.76,10.88,12.61Zm-.15-.07s-.05.07,0,.1,0,.09.08.08.05-.07,0-.1S10.77,12.53,10.73,12.54Z" style="fill:#114e4e"/></svg>